<?xml version="1.0" encoding="utf-8"?>
<!-- Generator: Adobe Illustrator 22.1.0, SVG Export Plug-In . SVG Version: 6.00 Build 0)  -->
<svg version="1.1" id="Layer_1" xmlns="http://www.w3.org/2000/svg" xmlns:xlink="http://www.w3.org/1999/xlink" x="0px" y="0px"
	 viewBox="0 0 280 280" style="enable-background:new 0 0 280 280;" xml:space="preserve">
<circle style="fill:#C8C6C4;" cx="140" cy="138.2061" r="138.2061"/>
<path style="fill:#E2E2F6;" d="M160.3196,146.9542H37.4673c-12.6456,0-24.4385,3.6259-34.4199,9.8766
	C12.1439,224.3506,69.988,276.4122,140,276.4122c22.2682,0,43.3018-5.2742,61.9324-14.6296
	c14.2647-11.9156,23.3451-29.8302,23.3451-49.8704v-0.0001C225.2775,176.0368,196.1948,146.9542,160.3196,146.9542z"/>
<path style="fill:#8B8BC2;" d="M151.9534,148.3371l0.3032-1.383H45.721l0.3033,1.383c2.2237,9.2198,7.0754,16.7274,14.5551,22.5227
	c7.5471,5.7953,16.1387,8.693,25.7748,8.693h25.3705c5.5256,0,10.8153-1.0208,15.8692-3.0623
	c4.9865-2.0415,9.4339-4.9721,13.3422-8.7918C146.529,162.2327,150.2014,155.7789,151.9534,148.3371z"/>
<radialGradient id="SVGID_1_" cx="99.8667" cy="127.0517" r="43.6803" gradientTransform="matrix(-0.0007 -1 1.1091 -0.0007 -40.9808 227.0127)" gradientUnits="userSpaceOnUse">
	<stop  offset="0" style="stop-color:#594539"/>
	<stop  offset="1" style="stop-color:#9B643D"/>
</radialGradient>
<path style="fill:url(#SVGID_1_);" d="M143.121,146.9542c0.075-0.0593,0.1534-0.1197,0.2268-0.1784c0,0-5.7842,0.3999-5.7344-5.7779
	c0.0375-4.6804,0.606-48.0081,0.606-48.0081L61.906,95.8851l0.2128,45.2977c-0.1199,3.5132-3.6101,5.1168-5.7429,5.7714H52.19
	c1.8194,7.6393,5.8962,13.9285,12.2303,18.8677c6.4017,5.005,13.7128,7.5076,21.9339,7.5076h25.3705
	c9.5686,0,17.8231-3.3258,24.764-9.9772c4.6494-4.5441,7.7493-10.0101,9.2991-16.3981H143.121z"/>
<ellipse style="fill:#9A6541;" cx="61.7177" cy="96.9245" rx="7.8442" ry="9.0556"/>
<ellipse style="fill:#9A6541;" cx="138.123" cy="96.9245" rx="7.8442" ry="9.0556"/>
<path style="fill:#9A6541;" d="M103.6421,145.8022h-7.4436c-19.0432,0-34.4808-15.4376-34.4808-34.4808V91.2125
	c0-21.0987,17.1039-38.2026,38.2026-38.2026h0.0001c21.0987,0,38.2026,17.1039,38.2026,38.2026v20.1089
	C138.1229,130.3646,122.6854,145.8022,103.6421,145.8022z"/>
<radialGradient id="SVGID_2_" cx="332.0343" cy="100.184" r="20.9968" gradientTransform="matrix(1 0 0 1 -228.1 -7.629395e-06)" gradientUnits="userSpaceOnUse">
	<stop  offset="0" style="stop-color:#6D453A"/>
	<stop  offset="1" style="stop-color:#9A6541;stop-opacity:0"/>
</radialGradient>
<path style="fill:url(#SVGID_2_);" d="M100.9217,65.3959l2.4258,64.3864l30.02-3.1334l-2.2237-59.0293L100.9217,65.3959z"/>
<linearGradient id="SVGID_3_" gradientUnits="userSpaceOnUse" x1="99.8775" y1="133.5748" x2="99.9341" y2="91.0674">
	<stop  offset="0.0144" style="stop-color:#48372D"/>
	<stop  offset="0.4807" style="stop-color:#59453A"/>
	<stop  offset="1" style="stop-color:#9A6541"/>
</linearGradient>
<path style="opacity:0.75;fill:url(#SVGID_3_);enable-background:new    ;" d="M62.6736,119.3771
	c0.0005,0.0018,0.0008,0.0036,0.0013,0.0054c0.195,0.8136,0.4208,1.6227,0.6721,2.4262c0.0334,0.1047,0.0712,0.2074,0.1054,0.3117
	c0.1536,0.4764,0.3276,0.9476,0.5006,1.4191c4.9327,13.0107,17.5057,22.2627,32.2456,22.2627h7.4436
	c17.78,0,32.4122-13.4587,34.2759-30.7434c0.0105-0.1009,0.024-0.2013,0.0337-0.3024c0.0424-0.4287,0.072-0.8612,0.0985-1.2944
	c0.0089-0.1476,0.0227-0.2945,0.0296-0.4423c0.0276-0.5628,0.0431-1.1287,0.0431-1.6982v-20.109
	c0-0.1766-0.011-0.3507-0.0135-0.5267c-0.0069-0.3574-0.0123-0.7152-0.0271-1.0706l-3.741-0.1497l-0.0641,7.1761
	c0.1347,4.5272-1.4149,8.4464-4.6494,11.7577c-3.3019,3.3107-6.7038,5.1052-11.3864,5.6893
	c-7.4734,0.9323-8.9664-3.507-19.0933-3.2769c-9.0248,0.2052-13.5893,4.4277-19.5537,3.7697
	c-3.7122-0.4096-7.2101-2.331-9.9054-5.1689c-2.6956-2.9055-4.1105-6.2843-4.2453-10.1353l-0.1084-9.0566l-3.5892-0.1282
	c-0.0107,0.3731-0.0283,0.7445-0.0283,1.1202v14.7384l0.2894,7.5258C62.0671,115.5166,62.2955,117.4807,62.6736,119.3771z"/>
<path style="fill:#9A6541;" d="M107.4654,120.9022c-1.4088,0.5055-2.8309,0.6515-4.2236,0.6661
	c-1.3923,0.0011-2.7449-0.1567-4.0252-0.383c-1.2847-0.225-2.4944-0.5151-3.7175-0.8582c-1.2228-0.3523-2.4612-0.7292-3.7796-1.3579
	l-0.0191-0.0091c-0.4785-0.2282-0.6815-0.801-0.4533-1.2796c0.0942-0.1976,0.2477-0.3484,0.4286-0.4411
	c1.3467-0.6904,2.7772-0.9901,4.2091-1.097c1.4321-0.1014,2.8596,0.018,4.1967,0.2736c1.3424,0.2514,2.605,0.613,3.8429,1.0494
	c1.2367,0.4536,2.4583,0.9537,3.7033,1.714l0.0131,0.008c0.4503,0.275,0.5925,0.863,0.3175,1.3134
	C107.84,120.6943,107.6633,120.8311,107.4654,120.9022z"/>
<path style="fill:#9A6541;" d="M104.8637,107.242c1.5499-0.5391,2.8302-1.4488,3.841-2.7291
	c1.0108-1.3477,1.4825-2.8302,1.4151-4.4474c-0.1348-2.5606-1.3477-4.5485-3.6388-5.9636c-2.628-1.6172-4.1441-3.4703-4.5485-5.5593
	l-3.7399,4.5485c-2.4933,3.3019-3.7062,5.7951-3.6388,7.4797c0.0674,2.2237,0.876,4.38,2.4258,6.469
	c1.4241,1.359,3.0835,2.3805,5.1051,2.3131C103.0848,108.2479,104.1898,107.4442,104.8637,107.242z"/>
<ellipse style="fill:#33312D;" cx="87.7365" cy="92.9898" rx="2.9466" ry="4.9541"/>
<ellipse style="fill:#33312D;" cx="117.1413" cy="92.9898" rx="2.9466" ry="4.9541"/>
<path style="fill:#9A6541;" d="M39.8148,233.4074c12.0333,12.6592,26.4431,23.0349,42.5113,30.4239
	c6.6865-28.1833,9.4445-61.6148,12.6633-94.4568l-10.5534-4.4068C78.1287,177.5955,56.952,208.7885,39.8148,233.4074z"/>
<path style="fill:#9A6541;" d="M84.0568,165.87l-1.1753-24.8667c-0.1244-2.6327,1.1006-5.1474,3.2503-6.6723l6.8779-4.8788
	c1.1139-1.2024,2.8272-1.644,4.3835-1.1297c0,0,9.4928,2.7084,9.8714,3.2617c2.732,3.9925-4.6293,2.5583-4.6293,2.5583
	l3.4156,1.8354c1.6073,0.8637,2.5734,2.5758,2.482,4.3981l-3.5493,9.3775c-0.4739,0.6759-1.4972,0.6029-1.8703-0.1334
	l-1.5819-5.0188c-0.1626-0.5157-0.7209-0.7933-1.2303-0.6116l-4.2465,1.5154c0,0-3.035-1.3615,1.076,16.8088
	c1.6293,7.2011-5.704,12.4527-5.704,12.4527L84.0568,165.87z"/>
<path style="fill:#E2E2F6;" d="M158.9109,184.1452l45.5963-19.8434c0,0,28.1352,21.3199,40.3518,61.4453
	c10.3249,33.9122-1.8476,57.5015-39.221,53.2659S158.9109,184.1452,158.9109,184.1452z"/>
<path style="fill:#9A6541;" d="M214.579,279.8799c-26.0174,0.4303-49.5149-0.1736-79.7892-3.834l-1.2418-13.3647
	c17.2192-4.3089,47.7722-21.2812,63.8544-30.6457c9.2099-5.3629,27.8979-5.1894,36.3539,12.2598
	C240.1282,257.4441,237.2773,279.5045,214.579,279.8799z"/>
<path style="fill:#9A6541;" d="M133.548,262.6812l-28.2686-4.3376c-0.9093-0.1395-1.8376-0.0877-2.7257,0.1521l-12.9953,3.5089
	c-1.1424,0.2875-2.2017,0.8382-3.0935,1.6079l-11.4971,9.9252c-1.1476,0.9907-0.447,2.8746,1.0691,2.8746h1.9684l-1.0307,0.7903
	c-1.0045,0.7703-0.4858,2.3752,0.7794,2.412l3.427,0.0997c3.7692,0.1096,7.4843-0.9161,10.6633-2.9441l3.088-1.97l9.6613-2.9651
	l8.5848,3.4973c5.6787,1.6113,11.6275,2.0411,17.4788,1.2631l4.1324-0.5495L133.548,262.6812z"/>
<circle style="fill:#FFFFFF;" cx="212.5226" cy="84.5016" r="39.6383"/>
<circle style="fill:#FFFFFF;" cx="177.7723" cy="107.253" r="9.0617"/>
<circle style="fill:#FFFFFF;" cx="160.221" cy="116.3147" r="4.8057"/>
<path style="fill:#F7B548;" d="M212.5812,105.7594c-1.1754,0.0214-2.3091-0.4358-3.1407-1.2668
	c-0.8591-0.8235-1.3276-1.9733-1.2887-3.1627c-0.0305-1.1875,0.4367-2.3338,1.2887-3.1617
	c1.2721-1.2351,3.1525-1.6047,4.7973-0.9427c0.5236,0.2153,1.0013,0.5278,1.4079,0.9198c0.4181,0.4034,0.7567,0.8811,0.9971,1.4089
	c0.2498,0.5581,0.3752,1.1643,0.3679,1.7768c0.0048,0.5972-0.1207,1.1882-0.3679,1.7318c-0.4783,1.0521-1.3372,1.884-2.4039,2.3287
	C213.7162,105.6215,213.1518,105.7469,212.5812,105.7594L212.5812,105.7594z M212.5059,92.2119
	c-2.0035-0.0001-3.6451-1.5908-3.7083-3.5933l-0.6773-21.5379c-0.0641-2.0482,1.5444-3.7605,3.5926-3.8246
	c0.0386-0.0013,0.0771-0.0018,0.1157-0.0018h1.3535c2.0492,0.0001,3.7103,1.6614,3.7101,3.7107
	c0,0.0386-0.0006,0.0771-0.0018,0.1157l-0.6773,21.5379C216.1499,90.6207,214.509,92.2112,212.5059,92.2119L212.5059,92.2119z"/>
</svg>
